<svg xmlns="http://www.w3.org/2000/svg" width="16.074" height="12.678" viewBox="0 0 16.074 12.678">
  <path id="arrow-up-wide-short-solid" d="M12.06,32.294a.9.9,0,0,0-1.336,0l-2.49,2.717a.905.905,0,1,0,1.336,1.223l.917-1v8.538a.906.906,0,1,0,1.811,0V35.235l.917,1a.905.905,0,0,0,1.336-1.223L12.06,32.3Zm4.766,12.384h.906a.906.906,0,0,0,0-1.811h-.906a.906.906,0,1,0,0,1.811Zm0-3.622h2.717a.906.906,0,0,0,0-1.811H16.825a.906.906,0,1,0,0,1.811Zm0-3.622h4.528a.906.906,0,1,0,0-1.811H16.825a.906.906,0,1,0,0,1.811Zm0-3.622h6.339a.906.906,0,0,0,0-1.811H16.825a.906.906,0,0,0,0,1.811Z" transform="translate(-7.996 -32)"/>
</svg>
