<svg class="svg-icon" style="width: 1em; height: 1em;vertical-align: middle;fill: currentColor;overflow: hidden;" viewBox="0 0 1024 1024" version="1.1" xmlns="http://www.w3.org/2000/svg"><path d="M128 128a64 64 0 0 0-64 64v704a64 64 0 0 0 64 64h768a64 64 0 0 0 64-64V192a64 64 0 0 0-64-64H128z m0-64h768a128 128 0 0 1 128 128v704a128 128 0 0 1-128 128H128a128 128 0 0 1-128-128V192a128 128 0 0 1 128-128z" fill="#333333" /><path d="M256 544a32 32 0 0 1 0 64H128a32 32 0 0 1 0-64h128zM576 544a32 32 0 0 1 0 64H448a32 32 0 0 1 0-64h128zM896 544a32 32 0 1 1 0 64h-128a32 32 0 0 1 0-64h128zM256 704a32 32 0 0 1 0 64H128a32 32 0 0 1 0-64h128zM576 704a32 32 0 0 1 0 64H448a32 32 0 0 1 0-64h128zM896 704a32 32 0 1 1 0 64h-128a32 32 0 1 1 0-64h128zM960 288a32 32 0 1 1 0 64H64a32 32 0 0 1 0-64h896zM288 32a32 32 0 0 1 64 0v128a32 32 0 0 1-64 0v-128zM672 32a32 32 0 1 1 64 0v128a32 32 0 1 1-64 0v-128z" fill="#333333" /></svg>