<svg width="18" height="18" viewBox="0 0 18 18" fill="none" xmlns="http://www.w3.org/2000/svg">
<path d="M12.122 10.7702L11.1435 11.7487C9.9665 11.1995 8.95527 10.5316 8.20822 9.79177C7.09223 8.68666 6.49549 7.49142 6.25128 6.85648L7.22978 5.87797C7.49997 5.60778 7.49997 5.16971 7.22978 4.89952L4.78365 2.45338C4.51346 2.18319 4.0725 2.17937 3.812 2.45892C2.32082 4.05914 0.488323 6.96413 5.7621 12.2379C11.0359 17.5117 13.9409 15.6792 15.5411 14.188C15.8206 13.9275 15.8168 13.4866 15.5466 13.2164L13.1005 10.7702C12.8303 10.5 12.3922 10.5 12.122 10.7702Z" stroke="white" stroke-width="2" stroke-linecap="round" stroke-linejoin="round"/>
</svg>
