<svg width="10" height="10" viewBox="0 0 10 10" fill="none" xmlns="http://www.w3.org/2000/svg">
<path d="M9.84293 4.1L9.10995 4.3L8.48168 3.95V3.1L9.10995 2.75L9.84293 2.95L10 2.4L9.42408 2.25L9.58115 1.7L9.00524 1.55L8.79581 2.25L8.16754 2.6L7.3822 2.15V1.5L7.90576 1L7.48691 0.6L7.06806 1L6.64921 0.6L6.23037 1L6.75393 1.5V2.15L5.96859 2.6L5.34031 2.25L5.18325 1.55L4.60733 1.7L4.7644 2.25L4.18848 2.35L4.34555 2.9L5.07853 2.7L5.70681 3.05V3.9L5.07853 4.25L4.34555 4.05L4.18848 4.7L4.7644 4.85L4.60733 5.35L5.18325 5.5L5.39267 4.8L6.02094 4.45L6.80628 4.9V5.55L6.28272 6.05L6.70157 6.45L7.12042 6.05L7.53927 6.45L7.95812 6.05L7.43456 5.55V4.9L8.2199 4.45L8.84817 4.8L9.05759 5.5L9.63351 5.35L9.42408 4.8L10 4.65L9.84293 4.1ZM6.28272 3.1L7.06806 2.65L7.8534 3.1V3.95L7.06806 4.4L6.28272 3.95V3.1ZM1.57068 8C1.57068 8 0 4 0 2C0 0 1.04712 0 1.04712 0H1.57068C1.57068 0 2.09424 0 2.09424 0.5C2.09424 1 1.57068 1 1.57068 2C1.57068 3 3.14136 4 3.14136 5.5C3.14136 7 1.57068 8 1.57068 8ZM6.80628 7.5C7.3822 7.5 7.8534 7.95 7.8534 8.5V9C7.8534 9.55 7.3822 10 6.80628 10H3.66492C2.6178 10 2.09424 9.1 2.09424 9.1C1.98953 9 1.93717 8.8 2.09424 8.7C2.09424 8.7 3.66492 7.45 4.18848 7.45H6.80628V7.5Z" fill="#003C4D"/>
</svg>
