<svg width="437" height="287" viewBox="0 0 437 287" fill="none" xmlns="http://www.w3.org/2000/svg">
<circle cx="91" cy="242" r="45" fill="#0397BF"/>
<circle cx="225" cy="242" r="45" fill="#0397BF"/>
<circle cx="359" cy="242" r="45" fill="#0397BF"/>
<rect width="437" height="242" rx="22" fill="#0397BF"/>
<circle cx="91" cy="128" r="57" fill="#F7F8F3"/>
<circle cx="91" cy="128" r="45" fill="#0397BF"/>
<circle cx="225" cy="128" r="57" fill="#F7F8F3"/>
<circle cx="225" cy="128" r="45" fill="#0397BF"/>
<circle cx="359" cy="128" r="57" fill="#F7F8F3"/>
<circle cx="359" cy="128" r="45" fill="#0397BF"/>
<rect x="18" y="48" width="33" height="15" rx="7.5" fill="#F6F8F7"/>
<rect x="136" y="48" width="33" height="15" rx="7.5" fill="#F6F8F7"/>
<rect x="272" y="48" width="33" height="15" rx="7.5" fill="#F6F8F7"/>
<rect x="383" y="48" width="33" height="15" rx="7.5" fill="#F6F8F7"/>
<rect x="386" y="199.497" width="33" height="15" rx="7.5" transform="rotate(-26.0595 386 199.497)" fill="#F6F8F7"/>
<rect x="252" y="199.497" width="33" height="15" rx="7.5" transform="rotate(-26.0595 252 199.497)" fill="#F6F8F7"/>
<rect x="168.607" y="182" width="33" height="15" rx="7.5" transform="rotate(45 168.607 182)" fill="#F6F8F7"/>
<rect x="39.6066" y="182" width="33" height="15" rx="7.5" transform="rotate(45 39.6066 182)" fill="#F6F8F7"/>
</svg>
