<svg width="15" height="9" viewBox="0 0 15 9" fill="none" xmlns="http://www.w3.org/2000/svg">
<path d="M1.16422 1.34121C1.07997 1.42525 1.01313 1.52508 0.967521 1.63499C0.921913 1.7449 0.898437 1.86273 0.898437 1.98173C0.898437 2.10073 0.921913 2.21855 0.967521 2.32846C1.01313 2.43838 1.07997 2.53821 1.16422 2.62225L7.17859 8.63661C7.24554 8.7037 7.32507 8.75693 7.41263 8.79325C7.50018 8.82957 7.59404 8.84827 7.68883 8.84827C7.78362 8.84827 7.87748 8.82957 7.96503 8.79325C8.05258 8.75693 8.13212 8.7037 8.19907 8.63661L14.2134 2.62225C14.5681 2.26761 14.5681 1.69584 14.2134 1.34121C13.8588 0.986569 13.287 0.986569 12.9324 1.34121L7.68521 6.58116L2.43802 1.33397C2.09062 0.986571 1.51162 0.98657 1.16422 1.34121Z" fill="#1E232C" stroke="#1E232C" stroke-width="0.2"/>
</svg>
