<svg width="10" height="10" viewBox="0 0 10 10" fill="none" xmlns="http://www.w3.org/2000/svg">
<path d="M9.27158 1.93333L9.27895 1.92389L7.17368 0.123889L6.51053 0.987221L7.59842 1.91722C7.32855 2.09033 7.11425 2.34514 6.98341 2.64852C6.85256 2.9519 6.81121 3.28981 6.86474 3.61833C6.94368 4.11777 7.26947 4.54944 7.69105 4.7911C8.16211 5.06166 8.57526 5.03666 8.94263 4.89888L8.93474 8.33332C8.93537 8.42531 8.91427 8.51602 8.87334 8.59724C8.8324 8.67845 8.77293 8.74762 8.7003 8.79847C8.62768 8.84932 8.54418 8.88025 8.45738 8.88847C8.37058 8.89669 8.2832 8.88194 8.20316 8.84554C8.14047 8.81724 8.08361 8.77629 8.03579 8.72499C7.98714 8.67353 7.94857 8.61245 7.92229 8.54524C7.89601 8.47804 7.88253 8.40603 7.88263 8.33332L7.89474 7.22221C7.89527 7.00354 7.85475 6.78691 7.77553 6.58486C7.6963 6.3828 7.57994 6.19931 7.43316 6.04499C7.28653 5.88988 7.11237 5.76682 6.92064 5.68283C6.72891 5.59885 6.52337 5.5556 6.31579 5.55555H5.78947V1.11111C5.78947 0.816425 5.67857 0.53381 5.48116 0.325436C5.28376 0.117063 5.01602 0 4.73684 0H1.05263C0.773456 0 0.505715 0.117063 0.308309 0.325436C0.110902 0.53381 0 0.816425 0 1.11111V8.88888C0 9.18356 0.110902 9.46618 0.308309 9.67455C0.505715 9.88292 0.773456 9.99999 1.05263 9.99999H4.73684C5.01602 9.99999 5.28376 9.88292 5.48116 9.67455C5.67857 9.46618 5.78947 9.18356 5.78947 8.88888V6.66666H6.31579C6.38737 6.66666 6.45632 6.68166 6.52158 6.70999C6.64684 6.76787 6.74669 6.87367 6.80105 7.0061C6.82836 7.0745 6.84232 7.148 6.84211 7.22221L6.82947 8.33332C6.82947 8.55888 6.87105 8.77721 6.95368 8.98221C7.03316 9.18165 7.14737 9.35999 7.29105 9.51054C7.43715 9.6664 7.61121 9.78995 7.80306 9.87399C7.99491 9.95803 8.20071 10.0009 8.40842 9.99999C8.62211 9.99999 8.82842 9.95665 9.02316 9.86888C9.21158 9.78554 9.38105 9.66499 9.52368 9.51277C9.67103 9.35831 9.78788 9.17453 9.86747 8.97208C9.94706 8.76963 9.98782 8.55252 9.98737 8.33332L10 3.33333C9.99948 3.05423 9.9325 2.77975 9.80521 2.53511C9.67793 2.29048 9.49443 2.08354 9.27158 1.93333ZM4.73684 2.77777H1.05263V1.11111H4.73684V2.77777ZM8.42105 3.88888C8.28147 3.88888 8.14759 3.83035 8.04889 3.72617C7.95019 3.62198 7.89474 3.48067 7.89474 3.33333C7.89474 3.18599 7.95019 3.04468 8.04889 2.94049C8.14759 2.83631 8.28147 2.77777 8.42105 2.77777C8.56064 2.77777 8.69451 2.83631 8.79321 2.94049C8.89192 3.04468 8.94737 3.18599 8.94737 3.33333C8.94737 3.48067 8.89192 3.62198 8.79321 3.72617C8.69451 3.83035 8.56064 3.88888 8.42105 3.88888Z" fill="#003C4D"/>
</svg>
