<svg id="grid" xmlns="http://www.w3.org/2000/svg" width="22.301" height="22.301" viewBox="0 0 22.301 22.301">
  <path id="Shape" d="M19.2,22.3H15.487a3.1,3.1,0,0,1-3.1-3.1V15.487a3.1,3.1,0,0,1,3.1-3.1H19.2a3.1,3.1,0,0,1,3.1,3.1V19.2A3.1,3.1,0,0,1,19.2,22.3Zm-3.716-8.673a1.861,1.861,0,0,0-1.859,1.859V19.2a1.861,1.861,0,0,0,1.859,1.859H19.2A1.861,1.861,0,0,0,21.062,19.2V15.487A1.861,1.861,0,0,0,19.2,13.628ZM6.814,22.3H3.1A3.1,3.1,0,0,1,0,19.2V15.487a3.1,3.1,0,0,1,3.1-3.1H6.814a3.1,3.1,0,0,1,3.1,3.1V19.2A3.1,3.1,0,0,1,6.814,22.3ZM3.1,13.628a1.861,1.861,0,0,0-1.859,1.859V19.2A1.861,1.861,0,0,0,3.1,21.062H6.814A1.861,1.861,0,0,0,8.673,19.2V15.487a1.861,1.861,0,0,0-1.859-1.859ZM19.2,9.911H15.487a3.1,3.1,0,0,1-3.1-3.1V3.1a3.1,3.1,0,0,1,3.1-3.1H19.2a3.1,3.1,0,0,1,3.1,3.1V6.814A3.1,3.1,0,0,1,19.2,9.911ZM15.487,1.239A1.861,1.861,0,0,0,13.628,3.1V6.814a1.861,1.861,0,0,0,1.859,1.859H19.2a1.861,1.861,0,0,0,1.859-1.859V3.1A1.861,1.861,0,0,0,19.2,1.239ZM6.814,9.911H3.1A3.1,3.1,0,0,1,0,6.814V3.1A3.1,3.1,0,0,1,3.1,0H6.814a3.1,3.1,0,0,1,3.1,3.1V6.814A3.1,3.1,0,0,1,6.814,9.911ZM3.1,1.239A1.861,1.861,0,0,0,1.239,3.1V6.814A1.861,1.861,0,0,0,3.1,8.673H6.814A1.861,1.861,0,0,0,8.673,6.814V3.1A1.861,1.861,0,0,0,6.814,1.239Z" fill="#c6c6c6"/>
</svg>
