<svg xmlns="http://www.w3.org/2000/svg" width="12.73" height="10.886" viewBox="0 0 12.73 10.886">
  <path id="heart-regular" d="M6.067,43.193l.276.3.3-.3a3.617,3.617,0,0,1,3.12-.993,3.553,3.553,0,0,1,2.969,3.506v.144a3.719,3.719,0,0,1-1.183,2.723L7.054,52.768a1.011,1.011,0,0,1-1.377,0L1.183,48.573A3.723,3.723,0,0,1,0,45.851v-.144a3.554,3.554,0,0,1,6.067-2.514c-.022,0,0,0,0,0Zm.3,8.585-.689-2.447c-.54-.518,1.42-2.432.666-2.307-1.137.19-.276-2.327-.276-1.174l3.695,1.174c0,.7-1.074,1.072-.561,1.549l-2.836,3.2L10.733,47.7c.512-.477-2.267.025-2.267-.676l-.839-1.318c0-1.154,3.27.334,2.134.144-.753-.125,2.325,1.332,1.785,1.85Z" transform="translate(0 -42.152)" fill="#ffa010"/>
</svg>
