<svg xmlns="http://www.w3.org/2000/svg" width="17.359" height="14.845" viewBox="0 0 17.359 14.845">
  <path id="heart-regular" d="M8.273,43.571l.376.407.407-.406a4.932,4.932,0,0,1,4.255-1.353A4.845,4.845,0,0,1,17.359,47v.2a5.072,5.072,0,0,1-1.614,3.713l-6.127,5.72a1.378,1.378,0,0,1-1.878,0l-6.127-5.72A5.077,5.077,0,0,1,0,47.2V47a4.846,4.846,0,0,1,8.273-3.428c-.031,0,0,0,0,0Zm.376,2.709L7.123,44.693a3.29,3.29,0,0,0-2.807-.87A3.22,3.22,0,0,0,1.627,47v.2a3.448,3.448,0,0,0,1.1,2.522l5.956,5.56,5.957-5.56a3.45,3.45,0,0,0,1.1-2.522V47a3.221,3.221,0,0,0-2.689-3.175,3.29,3.29,0,0,0-2.807.87Z" transform="translate(0 -42.152)" fill="#ffa010"/>
</svg>
