<svg width="24" height="24" viewBox="0 0 24 24" fill="none" xmlns="http://www.w3.org/2000/svg">
<path d="M23.933 12.3323C23.8687 12.4888 23.7595 12.6228 23.6191 12.7174C23.4788 12.812 23.3135 12.8629 23.1443 12.8638H20.5725V21.4363C20.5725 22.1184 20.3016 22.7725 19.8193 23.2548C19.337 23.7371 18.6828 24.0081 18.0008 24.0081H14.5718C14.3444 24.0081 14.1264 23.9178 13.9656 23.757C13.8048 23.5962 13.7145 23.3782 13.7145 23.1508V18.0073C13.7145 17.7799 13.6242 17.5619 13.4634 17.4011C13.3027 17.2404 13.0846 17.15 12.8573 17.15H11.1427C10.9154 17.15 10.6973 17.2404 10.5366 17.4011C10.3758 17.5619 10.2855 17.7799 10.2855 18.0073V23.1508C10.2855 23.3782 10.1952 23.5962 10.0344 23.757C9.87364 23.9178 9.6556 24.0081 9.42824 24.0081H5.99922C5.31715 24.0081 4.66301 23.7371 4.18071 23.2548C3.69841 22.7725 3.42746 22.1184 3.42746 21.4363V12.8638H0.855699C0.686456 12.8629 0.521249 12.812 0.380899 12.7174C0.240549 12.6228 0.131337 12.4888 0.0670255 12.3323C0.00137752 12.1762 -0.0165585 12.0041 0.0154806 11.8378C0.0475197 11.6715 0.128098 11.5184 0.247049 11.3979L11.3913 0.253574C11.471 0.173225 11.5659 0.10945 11.6703 0.0659288C11.7748 0.0224071 11.8868 0 12 0C12.1132 0 12.2252 0.0224071 12.3297 0.0659288C12.4341 0.10945 12.529 0.173225 12.6086 0.253574L23.753 11.3979C23.8719 11.5184 23.9525 11.6715 23.9845 11.8378C24.0166 12.0041 23.9986 12.1762 23.933 12.3323Z" fill="#002731"/>
</svg>
