<svg width="14" height="19" viewBox="0 0 14 19" fill="none" xmlns="http://www.w3.org/2000/svg">
<path d="M7.07097 14.011C7.21074 14.011 7.34479 13.9554 7.44362 13.8566C7.54245 13.7578 7.59798 13.6237 7.59798 13.484V11.3C7.59798 11.1601 7.54239 11.0259 7.44347 10.927C7.34454 10.828 7.21038 10.7725 7.07048 10.7725C6.93058 10.7725 6.7964 10.828 6.69748 10.927C6.59855 11.0259 6.54297 11.1601 6.54297 11.3V13.484C6.54297 13.5533 6.55664 13.6219 6.58319 13.6859C6.60974 13.7499 6.64864 13.808 6.69768 13.857C6.74672 13.9059 6.80493 13.9447 6.86899 13.9711C6.93304 13.9976 7.00168 14.0111 7.07097 14.011Z" fill="#002731" stroke="#002731"/>
<path d="M13.115 6.28402H10.615V3.71502C10.5671 2.82027 10.1679 1.98059 9.50429 1.37856C8.84065 0.776518 7.96618 0.460792 7.071 0.500023C6.17515 0.459708 5.29965 0.774946 4.63513 1.3771C3.97061 1.97925 3.57089 2.81955 3.523 3.71502V6.28402H1.027C0.887231 6.28402 0.753186 6.33955 0.654355 6.43838C0.555523 6.53721 0.5 6.67125 0.5 6.81102L0.5 13.555C0.501323 14.8659 1.0226 16.1228 1.94947 17.0499C2.87633 17.9769 4.13308 18.4984 5.444 18.5H8.7C10.0107 18.4984 11.2673 17.977 12.1942 17.0502C13.121 16.1234 13.6424 14.8668 13.644 13.556V6.81102C13.6437 6.67133 13.5881 6.53744 13.4894 6.43867C13.3906 6.3399 13.2567 6.28429 13.117 6.28402H13.115ZM4.578 3.71502C4.62588 3.09936 4.91438 2.52735 5.38099 2.12288C5.84761 1.7184 6.45478 1.51403 7.071 1.55402C7.68722 1.51403 8.29439 1.7184 8.76101 2.12288C9.22762 2.52735 9.51612 3.09936 9.564 3.71502V6.28402H4.578V3.71502ZM12.588 13.555C12.5869 14.5864 12.1768 15.5752 11.4475 16.3045C10.7182 17.0338 9.72937 17.444 8.698 17.445H5.444C4.41263 17.444 3.42381 17.0338 2.69452 16.3045C1.96524 15.5752 1.55506 14.5864 1.554 13.555V7.33902H12.587L12.588 13.555Z" fill="#002731" stroke="#002731"/>
</svg>
