<svg id="Group_109" data-name="Group 109" xmlns="http://www.w3.org/2000/svg" xmlns:xlink="http://www.w3.org/1999/xlink" width="16.201" height="16.201" viewBox="0 0 16.201 16.201">
  <defs>
    <clipPath id="clip-path">
      <path id="_Icon_小olor" data-name=" Icon 小olor" d="M.953,16.2A.987.987,0,0,1,0,15.189V1.012A.987.987,0,0,1,.953,0H2.859a.987.987,0,0,1,.953,1.012.987.987,0,0,1-.953,1.012H1.906V14.176h.953a1.014,1.014,0,0,1,0,2.025Zm10.865-3.241a1.054,1.054,0,0,1-.191-1.416l1.717-2.431H5.718a1.014,1.014,0,0,1,0-2.025h7.623a.634.634,0,0,1,.082.018L11.787,4.632a1.054,1.054,0,0,1,.232-1.411.917.917,0,0,1,1.328.246l2.682,4.051a1.064,1.064,0,0,1-.017,1.189l-2.86,4.051a.933.933,0,0,1-.763.4A.912.912,0,0,1,11.818,12.961Z" fill="#18203a"/>
    </clipPath>
  </defs>
  <path id="_Icon_小olor-2" data-name=" Icon 小olor" d="M.953,16.2A.987.987,0,0,1,0,15.189V1.012A.987.987,0,0,1,.953,0H2.859a.987.987,0,0,1,.953,1.012.987.987,0,0,1-.953,1.012H1.906V14.176h.953a1.014,1.014,0,0,1,0,2.025Zm10.865-3.241a1.054,1.054,0,0,1-.191-1.416l1.717-2.431H5.718a1.014,1.014,0,0,1,0-2.025h7.623a.634.634,0,0,1,.082.018L11.787,4.632a1.054,1.054,0,0,1,.232-1.411.917.917,0,0,1,1.328.246l2.682,4.051a1.064,1.064,0,0,1-.017,1.189l-2.86,4.051a.933.933,0,0,1-.763.4A.912.912,0,0,1,11.818,12.961Z" fill="#18203a"/>
</svg>
