<svg width="20" height="20" viewBox="0 0 20 20" fill="none" xmlns="http://www.w3.org/2000/svg">
<path d="M18.0528 14.2671C16.6203 11.8784 15.7584 10.8354 15.7584 8.2563C15.757 6.90538 15.2693 5.60012 14.3847 4.57912C13.5001 3.55812 12.2776 2.8896 10.9406 2.69577V2.63555C10.9406 2.42259 10.856 2.21835 10.7054 2.06776C10.5549 1.91718 10.3506 1.83258 10.1377 1.83258C9.92471 1.83258 9.72047 1.91718 9.56988 2.06776C9.4193 2.21835 9.3347 2.42259 9.3347 2.63555V2.69914C7.98947 2.95387 6.77414 3.66705 5.89569 4.71721C5.01723 5.76737 4.52998 7.08958 4.51691 8.45865C4.51691 10.8354 3.50357 12.1314 2.22251 14.2672C2.14949 14.3891 2.11009 14.5281 2.10834 14.6701C2.10658 14.8121 2.14254 14.9521 2.21253 15.0757C2.28252 15.1993 2.38404 15.3021 2.50675 15.3737C2.62945 15.4452 2.76894 15.4829 2.91098 15.483H17.3644C17.5064 15.483 17.6459 15.4452 17.7686 15.3737C17.8913 15.3021 17.9929 15.1993 18.0629 15.0757C18.1329 14.9521 18.1688 14.8121 18.167 14.6701C18.1653 14.528 18.1259 14.389 18.0528 14.2671Z" fill="#033C4B"/>
<path d="M11.7436 16.286H8.53173C8.31877 16.286 8.11453 16.3706 7.96394 16.5212C7.81336 16.6718 7.72876 16.876 7.72876 17.089C7.72876 17.3019 7.81336 17.5062 7.96394 17.6568C8.11453 17.8074 8.31877 17.892 8.53173 17.892H11.7436C11.9565 17.892 12.1608 17.8074 12.3114 17.6568C12.462 17.5062 12.5466 17.3019 12.5466 17.089C12.5466 16.876 12.462 16.6718 12.3114 16.5212C12.1608 16.3706 11.9565 16.286 11.7436 16.286Z" fill="#033C4B"/>
</svg>
