<svg id="_22_Icons_Line_Tab_04" data-name="22) Icons/Line/Tab 04" xmlns="http://www.w3.org/2000/svg" width="17.155" height="22.301" viewBox="0 0 17.155 22.301">
  <g id="bell-alt" transform="translate(0)">
    <g id="bell" transform="translate(0)">
      <path id="Shape" d="M8.577,22.3a3.723,3.723,0,0,1-3.506-2.478H3.1A3.1,3.1,0,0,1,.266,15.468L1.143,13.5V9.911A7.446,7.446,0,0,1,6.1,2.9V2.478a2.478,2.478,0,0,1,4.956,0V2.9a7.446,7.446,0,0,1,4.955,7.01V13.5l.876,1.971a3.1,3.1,0,0,1-1.572,4.088,3.117,3.117,0,0,1-1.258.268H12.081A3.722,3.722,0,0,1,8.577,22.3ZM6.429,19.823a2.48,2.48,0,0,0,4.294,0ZM8.577,3.716a6.2,6.2,0,0,0-6.2,6.2v3.716l-.054.252L1.4,15.971a1.858,1.858,0,0,0,1.7,2.614H14.056a1.839,1.839,0,0,0,.754-.161,1.862,1.862,0,0,0,.944-2.453l-.93-2.091-.054-.252V9.911A6.2,6.2,0,0,0,8.577,3.716Zm0-1.239a7.6,7.6,0,0,1,1.239.1v-.1a1.239,1.239,0,0,0-2.478,0v.1A7.584,7.584,0,0,1,8.577,2.478Z" transform="translate(0)" fill="#c5cee0"/>
    </g>
  </g>
</svg>
