<svg xmlns="http://www.w3.org/2000/svg" width="14.143" height="19" viewBox="0 0 14.143 19">
  <g id="privacy" transform="translate(0.5 0.5)">
    <path id="Path_899" data-name="Path 899" d="M172.441,295.438a.527.527,0,0,0,.527-.527v-2.184a.527.527,0,0,0-1.055,0v2.184A.527.527,0,0,0,172.441,295.438Zm0,0" transform="translate(-165.87 -281.927)" fill="#022332" stroke="#022332" stroke-width="1"/>
    <path id="Path_900" data-name="Path 900" d="M12.615,5.784h-2.5V3.215A3.4,3.4,0,0,0,6.571,0,3.4,3.4,0,0,0,3.023,3.215V5.784H.527A.527.527,0,0,0,0,6.311v6.744A4.95,4.95,0,0,0,4.944,18H8.2a4.95,4.95,0,0,0,4.944-4.944V6.311a.528.528,0,0,0-.527-.527ZM4.078,3.215A2.348,2.348,0,0,1,6.571,1.054,2.348,2.348,0,0,1,9.064,3.215V5.784H4.078Zm8.01,9.84a3.894,3.894,0,0,1-3.89,3.89H4.944a3.894,3.894,0,0,1-3.89-3.89V6.839H12.087Zm0,0" fill="#022332" stroke="#022332" stroke-width="1"/>
  </g>
</svg>
