<svg id="_22_Icons_Line_Tab_05" data-name="22) Icons/Line/Tab 05" xmlns="http://www.w3.org/2000/svg" width="19.823" height="19.823" viewBox="0 0 19.823 19.823">
  <g id="user">
    <path id="Shape" d="M16.725,19.823H3.1a3.1,3.1,0,0,1-3.1-3.1v-.882a3.105,3.105,0,0,1,1.815-2.82L6.1,11.077a6.194,6.194,0,1,1,7.627,0l4.282,1.947a3.1,3.1,0,0,1,1.816,2.82v.882A3.1,3.1,0,0,1,16.725,19.823Zm-9.339-7.97-5.058,2.3a1.864,1.864,0,0,0-1.089,1.693v.882A1.861,1.861,0,0,0,3.1,18.584H16.725a1.861,1.861,0,0,0,1.859-1.859v-.882a1.864,1.864,0,0,0-1.089-1.693l-5.058-2.3a6.214,6.214,0,0,1-5.051,0ZM9.911,1.239A4.956,4.956,0,1,0,14.867,6.2,4.962,4.962,0,0,0,9.911,1.239Z" fill="#c5cee0"/>
  </g>
</svg>
