<svg width="23" height="24" viewBox="0 0 23 24" fill="none" xmlns="http://www.w3.org/2000/svg">
<path d="M0.688843 5.95539C0.688843 4.58406 1.19018 3.26637 2.08689 2.28037C2.9836 1.29437 4.206 0.716371 5.49595 0.669526L5.66662 0.666504H7.08884C8.34964 0.66726 9.5628 1.17575 10.4844 2.08922C11.406 3.00344 11.9671 4.25464 12.0545 5.59046L12.0638 5.77179L12.0709 6.08913C12.1015 6.64295 12.3226 7.16579 12.6924 7.55868C13.0615 7.95081 13.5536 8.18579 14.0748 8.21828L14.2 8.22206H16.3333C17.811 8.22206 19.2311 8.8333 20.2928 9.92584C21.3537 11.0191 21.9731 12.5083 22.0193 14.0776L22.0222 14.2665V20.3109C22.0222 20.4961 21.9582 20.6744 21.8423 20.8126C21.7271 20.9509 21.5671 21.0393 21.3943 21.0612L21.3111 21.0665H20.6V23.3332H19.1777V21.0665H3.53329V23.3332H2.11106V21.0665H1.39995C1.22573 21.0665 1.05791 20.9985 0.927776 20.8753C0.797643 20.7529 0.714443 20.5829 0.693821 20.3993L0.688843 20.3109V5.95539ZM3.53329 15.0221H2.11106V19.5554H20.6V15.0221H19.1777M6.37773 15.0221H4.95551H6.37773ZM9.22218 15.0221H7.79995H9.22218ZM12.0666 15.0221H10.6444H12.0666ZM14.9111 15.0221H13.4888H14.9111ZM17.7555 15.0221H16.3333H17.7555ZM7.08884 2.17761H5.66662C4.75071 2.17761 3.86964 2.55388 3.2076 3.22708C2.54627 3.90028 2.15444 4.81904 2.11462 5.79144L2.11106 5.95539V13.5109H20.5395L20.5281 13.4339C20.3553 12.4547 19.8846 11.5624 19.187 10.896C18.4901 10.2296 17.6055 9.82535 16.6704 9.74677L16.4926 9.73619L16.3333 9.73317H14.2C12.2878 9.73317 10.7283 8.12988 10.648 6.13219L10.6423 5.81335C10.6074 4.83641 10.2184 3.91237 9.55569 3.23388C8.89293 2.55615 8.00902 2.17761 7.08884 2.17761Z" fill="#0396BE"/>
<path d="M4.95554 18.0443H3.52905V13.8389H4.95554V18.0443Z" fill="#0396BE"/>
<path d="M7.7999 18.0443H6.37341V13.8389H7.7999V18.0443Z" fill="#0396BE"/>
<path d="M10.6444 18.0443H9.2179V13.8389H10.6444V18.0443Z" fill="#0396BE"/>
<path d="M13.4889 18.0443H12.0624V13.8389H13.4889V18.0443Z" fill="#0396BE"/>
<path d="M16.3332 18.0443H14.9067V13.8389H16.3332V18.0443Z" fill="#0396BE"/>
<path d="M19.1777 18.0443H17.7512V13.8389H19.1777V18.0443Z" fill="#0396BE"/>
</svg>
