<svg width="38" height="36" viewBox="0 0 38 36" fill="none" xmlns="http://www.w3.org/2000/svg">
<path d="M17.6567 1.70367C18.2082 0.593586 19.7918 0.593584 20.3433 1.70367L24.8478 10.7697C25.0662 11.2093 25.4859 11.5142 25.9715 11.5861L35.9857 13.0685C37.2119 13.2501 37.7013 14.7561 36.816 15.6237L29.5856 22.7093C29.235 23.0528 29.0747 23.5462 29.1564 24.0302L30.8411 34.0125C31.0474 35.2347 29.7662 36.1655 28.6675 35.5916L19.6945 30.9047C19.2594 30.6775 18.7406 30.6775 18.3055 30.9047L9.33246 35.5916C8.23376 36.1655 6.95263 35.2347 7.15891 34.0125L8.84358 24.0302C8.92527 23.5462 8.76496 23.0528 8.41438 22.7093L1.18404 15.6237C0.29873 14.7561 0.788074 13.2501 2.01427 13.0685L12.0285 11.5861C12.5141 11.5142 12.9338 11.2093 13.1522 10.7697L17.6567 1.70367Z" fill="#C9C9C9"/>
</svg>
