<svg id="_01_Icons_Filled_arrow-circle-down-fill" data-name="01) Icons/Filled/arrow-circle-down-fill" xmlns="http://www.w3.org/2000/svg" xmlns:xlink="http://www.w3.org/1999/xlink" width="19.061" height="19.061" viewBox="0 0 19.061 19.061">
  <defs>
    <clipPath id="clip-path">
      <path id="_Icon_小olor" data-name=" Icon 小olor" d="M6.3,19.061a2.116,2.116,0,0,1-1.293-.439l-1.974-1.5a2.25,2.25,0,0,1-.467-3.065,1.943,1.943,0,0,0,.22-1.77l-.052-.16a1.752,1.752,0,0,0-1.065-1.155l-.156-.054a2.235,2.235,0,0,1-1.412-2.8L.884,5.644A2.122,2.122,0,0,1,1.956,4.373a2.047,2.047,0,0,1,.931-.224,2.077,2.077,0,0,1,.673.113,1.784,1.784,0,0,0,.578.1,1.856,1.856,0,0,0,1.115-.379l.123-.093a1.821,1.821,0,0,0,.7-1.439v-.23A2.2,2.2,0,0,1,8.251,0l2.431,0a2.14,2.14,0,0,1,1.523.639,2.231,2.231,0,0,1,.65,1.6l0,.266a1.7,1.7,0,0,0,.661,1.362l.1.077a1.679,1.679,0,0,0,1,.335,1.622,1.622,0,0,0,.517-.084l.323-.108a2.146,2.146,0,0,1,.678-.111,2.113,2.113,0,0,1,.972.237,2.193,2.193,0,0,1,1.1,1.313l.75,2.4a2.243,2.243,0,0,1-1.4,2.792l-.191.063a1.832,1.832,0,0,0-1.154,1.226,1.863,1.863,0,0,0,.247,1.575l.248.357a2.271,2.271,0,0,1-.484,3.078L14.265,18.5a2.121,2.121,0,0,1-1.289.435,2.193,2.193,0,0,1-.342-.027A2.155,2.155,0,0,1,11.2,18l-.112-.164a1.66,1.66,0,0,0-1.344-.743l-.083,0a1.685,1.685,0,0,0-1.36.731l-.22.312a2.157,2.157,0,0,1-1.439.9A2.184,2.184,0,0,1,6.3,19.061ZM2.888,6.056a.155.155,0,0,0-.072.018.225.225,0,0,0-.112.142L1.925,8.689a.34.34,0,0,0,.211.428l.156.053a3.661,3.661,0,0,1,2.265,2.384l.038.114a3.856,3.856,0,0,1-.439,3.453.35.35,0,0,0,.034.484l1.974,1.5a.24.24,0,0,0,.148.05l.032,0a.258.258,0,0,0,.173-.114l.22-.312a3.617,3.617,0,0,1,2.831-1.538h.081a3.6,3.6,0,0,1,3,1.563l.112.163a.258.258,0,0,0,.173.114.192.192,0,0,0,.038,0,.229.229,0,0,0,.141-.051L15.08,15.5a.355.355,0,0,0,.065-.471L14.9,14.67a3.781,3.781,0,0,1-.508-3.2,3.731,3.731,0,0,1,2.375-2.491l.192-.065A.332.332,0,0,0,17.14,8.5l-.75-2.4a.3.3,0,0,0-.148-.184.223.223,0,0,0-.105-.027.231.231,0,0,0-.073.012L15.74,6a3.544,3.544,0,0,1-1.12.181,3.6,3.6,0,0,1-2.15-.719l-.1-.077A3.612,3.612,0,0,1,10.948,2.5l0-.267a.337.337,0,0,0-.1-.242.242.242,0,0,0-.174-.077l-2.427,0a.3.3,0,0,0-.271.317v.231A3.744,3.744,0,0,1,6.53,5.4L6.407,5.5a3.77,3.77,0,0,1-2.268.767,3.7,3.7,0,0,1-1.2-.2.171.171,0,0,0-.055-.01Zm6.644,6.811a3.336,3.336,0,1,1,3.336-3.336A3.34,3.34,0,0,1,9.532,12.867Zm0-4.766a1.43,1.43,0,1,0,1.43,1.43A1.431,1.431,0,0,0,9.532,8.1Z" transform="translate(0)" fill="#18203a"/>
    </clipPath>
  </defs>
  <g id="Group_71" data-name="Group 71" transform="translate(0)">
    <path id="_Icon_小olor-2" data-name=" Icon 小olor" d="M6.3,19.061a2.116,2.116,0,0,1-1.293-.439l-1.974-1.5a2.25,2.25,0,0,1-.467-3.065,1.943,1.943,0,0,0,.22-1.77l-.052-.16a1.752,1.752,0,0,0-1.065-1.155l-.156-.054a2.235,2.235,0,0,1-1.412-2.8L.884,5.644A2.122,2.122,0,0,1,1.956,4.373a2.047,2.047,0,0,1,.931-.224,2.077,2.077,0,0,1,.673.113,1.784,1.784,0,0,0,.578.1,1.856,1.856,0,0,0,1.115-.379l.123-.093a1.821,1.821,0,0,0,.7-1.439v-.23A2.2,2.2,0,0,1,8.251,0l2.431,0a2.14,2.14,0,0,1,1.523.639,2.231,2.231,0,0,1,.65,1.6l0,.266a1.7,1.7,0,0,0,.661,1.362l.1.077a1.679,1.679,0,0,0,1,.335,1.622,1.622,0,0,0,.517-.084l.323-.108a2.146,2.146,0,0,1,.678-.111,2.113,2.113,0,0,1,.972.237,2.193,2.193,0,0,1,1.1,1.313l.75,2.4a2.243,2.243,0,0,1-1.4,2.792l-.191.063a1.832,1.832,0,0,0-1.154,1.226,1.863,1.863,0,0,0,.247,1.575l.248.357a2.271,2.271,0,0,1-.484,3.078L14.265,18.5a2.121,2.121,0,0,1-1.289.435,2.193,2.193,0,0,1-.342-.027A2.155,2.155,0,0,1,11.2,18l-.112-.164a1.66,1.66,0,0,0-1.344-.743l-.083,0a1.685,1.685,0,0,0-1.36.731l-.22.312a2.157,2.157,0,0,1-1.439.9A2.184,2.184,0,0,1,6.3,19.061ZM2.888,6.056a.155.155,0,0,0-.072.018.225.225,0,0,0-.112.142L1.925,8.689a.34.34,0,0,0,.211.428l.156.053a3.661,3.661,0,0,1,2.265,2.384l.038.114a3.856,3.856,0,0,1-.439,3.453.35.35,0,0,0,.034.484l1.974,1.5a.24.24,0,0,0,.148.05l.032,0a.258.258,0,0,0,.173-.114l.22-.312a3.617,3.617,0,0,1,2.831-1.538h.081a3.6,3.6,0,0,1,3,1.563l.112.163a.258.258,0,0,0,.173.114.192.192,0,0,0,.038,0,.229.229,0,0,0,.141-.051L15.08,15.5a.355.355,0,0,0,.065-.471L14.9,14.67a3.781,3.781,0,0,1-.508-3.2,3.731,3.731,0,0,1,2.375-2.491l.192-.065A.332.332,0,0,0,17.14,8.5l-.75-2.4a.3.3,0,0,0-.148-.184.223.223,0,0,0-.105-.027.231.231,0,0,0-.073.012L15.74,6a3.544,3.544,0,0,1-1.12.181,3.6,3.6,0,0,1-2.15-.719l-.1-.077A3.612,3.612,0,0,1,10.948,2.5l0-.267a.337.337,0,0,0-.1-.242.242.242,0,0,0-.174-.077l-2.427,0a.3.3,0,0,0-.271.317v.231A3.744,3.744,0,0,1,6.53,5.4L6.407,5.5a3.77,3.77,0,0,1-2.268.767,3.7,3.7,0,0,1-1.2-.2.171.171,0,0,0-.055-.01Zm6.644,6.811a3.336,3.336,0,1,1,3.336-3.336A3.34,3.34,0,0,1,9.532,12.867Zm0-4.766a1.43,1.43,0,1,0,1.43,1.43A1.431,1.431,0,0,0,9.532,8.1Z" transform="translate(0)" fill="#fff"/>
  </g>
</svg>
