<svg width="18" height="19" viewBox="0 0 18 19" fill="none" xmlns="http://www.w3.org/2000/svg">
<path d="M12.3749 2.94637C12.3748 2.25506 12.6068 1.58573 13.0302 1.05548C13.4536 0.52524 14.0415 0.167846 14.691 0.045833C15.3406 -0.0761802 16.0104 0.0449565 16.5833 0.388049C17.1561 0.731142 17.5956 1.27434 17.8248 1.92261C18.054 2.57089 18.0583 3.28295 17.837 3.93422C17.6157 4.58549 17.1828 5.13449 16.6142 5.48518C16.0455 5.83587 15.3772 5.96591 14.7262 5.85255C14.0753 5.73919 13.4831 5.38965 13.0533 4.86508L5.49556 8.54223C5.6693 9.11907 5.6693 9.73796 5.49556 10.3148L13.0533 13.9919C13.5076 13.4384 14.1419 13.0813 14.8333 12.9897C15.5246 12.8982 16.2238 13.0788 16.7953 13.4966C17.3667 13.9143 17.7698 14.5394 17.9264 15.2508C18.083 15.9622 17.982 16.7091 17.6428 17.3468C17.3037 17.9846 16.7507 18.4677 16.0909 18.7026C15.4311 18.9376 14.7116 18.9075 14.0717 18.6183C13.4319 18.3291 12.9173 17.8014 12.6277 17.1374C12.3381 16.4734 12.2942 15.7204 12.5043 15.0244L4.94656 11.3472C4.57242 11.804 4.07373 12.1298 3.51756 12.2808C2.96139 12.4317 2.37443 12.4006 1.83564 12.1916C1.29684 11.9827 0.832067 11.6058 0.503828 11.1119C0.175588 10.6179 -0.000366211 10.0304 -0.000366211 9.42851C-0.000366211 8.82662 0.175588 8.23917 0.503828 7.74517C0.832067 7.25118 1.29684 6.87435 1.83564 6.66538C2.37443 6.4564 2.96139 6.4253 3.51756 6.57627C4.07373 6.72723 4.57242 7.05302 4.94656 7.5098L12.5043 3.83266C12.4183 3.54587 12.3746 3.24698 12.3749 2.94637Z" fill="#F1F1F1"/>
</svg>
