<svg xmlns="http://www.w3.org/2000/svg" width="11.609" height="15.271" viewBox="0 0 11.609 15.271">
  <path id="sort-solid_1_" data-name="sort-solid (1)" d="M4.929,32.345a1.215,1.215,0,0,1,1.643,0l4.642,4.363a1.039,1.039,0,0,1,.25,1.189,1.164,1.164,0,0,1-1.073.675H1.107A1.168,1.168,0,0,1,.033,37.9a1.045,1.045,0,0,1,.25-1.189l4.642-4.363Zm0,14.632L.287,42.614a1.039,1.039,0,0,1-.25-1.189,1.164,1.164,0,0,1,1.073-.675h9.28a1.168,1.168,0,0,1,1.073.675,1.045,1.045,0,0,1-.25,1.189L6.572,46.976a1.215,1.215,0,0,1-1.643,0Z" transform="translate(0.056 -32.025)"/>
</svg>
