<svg class="svg-icon" style="width: 1em; height: 1em;vertical-align: middle;fill: currentColor;overflow: hidden;" viewBox="0 0 1024 1024" version="1.1" xmlns="http://www.w3.org/2000/svg"><path d="M694.85626 895.999224l0 109.714066q0 7.972555-5.11999 13.165688t-13.165688 5.11999l-146.285422 0q-7.972555 0-13.165688-5.11999t-5.11999-13.165688l0-109.714066q0-7.972555 5.11999-13.165688t13.165688-5.11999l146.285422 0q7.972555 0 13.165688 5.11999t5.11999 13.165688zM420.571094 822.856513q0 6.875415-5.705131 13.677687l-182.271635 182.271635q-5.705131 5.11999-13.165688 5.11999-6.875415 0-13.165688-5.11999l-182.856777-182.856777q-8.557697-9.142839-4.022849-19.96796 4.534848-11.410263 17.115394-11.410263l109.714066 0 0-786.284142q0-7.972555 5.11999-13.165688t13.165688-5.11999l109.714066 0q7.972555 0 13.165688 5.11999t5.11999 13.165688l0 786.284142 109.714066 0q7.972555 0 13.165688 5.11999t5.11999 13.165688zM804.570326 603.42838l0 109.714066q0 7.972555-5.11999 13.165688t-13.165688 5.11999l-255.999488 0q-7.972555 0-13.165688-5.11999t-5.11999-13.165688l0-109.714066q0-7.972555 5.11999-13.165688t13.165688-5.11999l255.999488 0q7.972555 0 13.165688 5.11999t5.11999 13.165688zM914.284393 310.857537l0 109.714066q0 7.972555-5.11999 13.165688t-13.165688 5.11999l-365.713554 0q-7.972555 0-13.165688-5.11999t-5.11999-13.165688l0-109.714066q0-7.972555 5.11999-13.165688t13.165688-5.11999l365.713554 0q7.972555 0 13.165688 5.11999t5.11999 13.165688zM1023.998459 18.286694l0 109.714066q0 7.972555-5.11999 13.165688t-13.165688 5.11999l-475.427621 0q-7.972555 0-13.165688-5.11999t-5.11999-13.165688l0-109.714066q0-7.972555 5.11999-13.165688t13.165688-5.11999l475.427621 0q7.972555 0 13.165688 5.11999t5.11999 13.165688z"  /></svg>