<svg width="14" height="13" viewBox="0 0 14 13" fill="none" xmlns="http://www.w3.org/2000/svg">
<path d="M6.0421 1.1959C6.327 0.245374 7.673 0.245374 7.9579 1.1959L8.69088 3.64138C8.82014 4.07264 9.22164 4.36434 9.67173 4.35401L12.224 4.29542C13.2161 4.27264 13.632 5.55277 12.816 6.11745L10.7167 7.57025C10.3465 7.82645 10.1932 8.29844 10.3421 8.72331L11.1865 11.1326C11.5147 12.069 10.4258 12.8602 9.63661 12.2587L7.6062 10.7111C7.24814 10.4381 6.75186 10.4381 6.3938 10.7111L4.36339 12.2587C3.5742 12.8602 2.48526 12.069 2.81348 11.1326L3.65791 8.72331C3.80682 8.29844 3.65346 7.82645 3.28325 7.57025L1.18396 6.11745C0.368001 5.55277 0.78394 4.27264 1.77598 4.29542L4.32828 4.35401C4.77836 4.36434 5.17986 4.07264 5.30912 3.64138L6.0421 1.1959Z" fill="#FEA500"/>
</svg>
