<svg width="20" height="23" viewBox="0 0 20 23" fill="none" xmlns="http://www.w3.org/2000/svg">
<path d="M10.8624 0.535156V3.49049L13.6358 1.78549L14.3247 3.05636L10.8624 5.18376V10.2643L14.9957 7.72402V3.46849H16.3735V6.87702L18.7784 5.40009L19.4673 6.67022L17.0624 8.14789L19.8358 9.85216L19.1469 11.123L15.6846 8.99416L11.5512 11.5344L15.6853 14.0754L19.1469 11.9473L19.8358 13.2174L17.0624 14.9217L19.4673 16.4001L18.7784 17.6702L16.3735 16.1926V19.6018H14.9957V15.3456L10.8624 12.8046V17.8858L14.3247 20.014L13.6358 21.2841L10.8624 19.5791V22.5352H9.48458V19.5791L6.71111 21.2841L6.02222 20.014L9.48458 17.8858V12.8046L5.35124 15.3448V19.6018H3.97346V16.1918L1.56924 17.6702L0.880352 16.4001L3.28389 14.9217L0.511108 13.2174L1.2 11.9473L4.66166 14.0747L8.795 11.5344L4.66235 8.99416L1.2 11.123L0.511108 9.85216L3.28457 8.14789L0.880352 6.67022L1.56924 5.40009L3.97346 6.87702V3.46849H5.35124V7.72402L9.48458 10.2643V5.18376L6.02222 3.05636L6.71111 1.78549L9.48458 3.49049V0.535156H10.8624Z" fill="#0396BE"/>
</svg>
