<svg width="19" height="24" viewBox="0 0 19 24" fill="none" xmlns="http://www.w3.org/2000/svg">
<path d="M11.7555 4.31275V2.80164C11.7555 1.96675 11.1191 1.29053 10.3333 1.29053H2.51109C1.72531 1.29053 1.08887 1.96675 1.08887 2.80164V23.2016" stroke="#0396BE" stroke-width="2"/>
<path d="M16.0222 4.31299H7.48889V7.33521H16.0222V4.31299Z" stroke="#0396BE" stroke-width="2" stroke-linejoin="round"/>
<path d="M5.35559 7.33496H18.1556" stroke="#0396BE" stroke-width="2" stroke-linejoin="round"/>
<path d="M11.7556 9.60156C11.363 9.60156 11.0444 9.94005 11.0444 10.3571C11.0444 10.7742 11.363 11.1127 11.7556 11.1127C12.1481 11.1127 12.4667 10.7742 12.4667 10.3571C12.4667 9.94005 12.1481 9.60156 11.7556 9.60156ZM8.2 9.60156C7.80747 9.60156 7.48889 9.94005 7.48889 10.3571C7.48889 10.7742 7.80747 11.1127 8.2 11.1127C8.59254 11.1127 8.91111 10.7742 8.91111 10.3571C8.91111 9.94005 8.59254 9.60156 8.2 9.60156ZM15.3111 9.60156C14.9186 9.60156 14.6 9.94005 14.6 10.3571C14.6 10.7742 14.9186 11.1127 15.3111 11.1127C15.7036 11.1127 16.0222 10.7742 16.0222 10.3571C16.0222 9.94005 15.7036 9.60156 15.3111 9.60156ZM11.7556 12.6238C11.363 12.6238 11.0444 12.9623 11.0444 13.3793C11.0444 13.7964 11.363 14.1349 11.7556 14.1349C12.1481 14.1349 12.4667 13.7964 12.4667 13.3793C12.4667 12.9623 12.1481 12.6238 11.7556 12.6238ZM15.3111 12.6238C14.9186 12.6238 14.6 12.9623 14.6 13.3793C14.6 13.7964 14.9186 14.1349 15.3111 14.1349C15.7036 14.1349 16.0222 13.7964 16.0222 13.3793C16.0222 12.9623 15.7036 12.6238 15.3111 12.6238ZM8.2 12.6238C7.80747 12.6238 7.48889 12.9623 7.48889 13.3793C7.48889 13.7964 7.80747 14.1349 8.2 14.1349C8.59254 14.1349 8.91111 13.7964 8.91111 13.3793C8.91111 12.9623 8.59254 12.6238 8.2 12.6238ZM11.7556 15.646C11.363 15.646 11.0444 15.9845 11.0444 16.4016C11.0444 16.8186 11.363 17.1571 11.7556 17.1571C12.1481 17.1571 12.4667 16.8186 12.4667 16.4016C12.4667 15.9845 12.1481 15.646 11.7556 15.646ZM15.3111 15.646C14.9186 15.646 14.6 15.9845 14.6 16.4016C14.6 16.8186 14.9186 17.1571 15.3111 17.1571C15.7036 17.1571 16.0222 16.8186 16.0222 16.4016C16.0222 15.9845 15.7036 15.646 15.3111 15.646ZM8.2 15.646C7.80747 15.646 7.48889 15.9845 7.48889 16.4016C7.48889 16.8186 7.80747 17.1571 8.2 17.1571C8.59254 17.1571 8.91111 16.8186 8.91111 16.4016C8.91111 15.9845 8.59254 15.646 8.2 15.646ZM11.7556 18.6682C11.363 18.6682 11.0444 19.0067 11.0444 19.4238C11.0444 19.8409 11.363 20.1793 11.7556 20.1793C12.1481 20.1793 12.4667 19.8409 12.4667 19.4238C12.4667 19.0067 12.1481 18.6682 11.7556 18.6682ZM15.3111 18.6682C14.9186 18.6682 14.6 19.0067 14.6 19.4238C14.6 19.8409 14.9186 20.1793 15.3111 20.1793C15.7036 20.1793 16.0222 19.8409 16.0222 19.4238C16.0222 19.0067 15.7036 18.6682 15.3111 18.6682ZM8.2 18.6682C7.80747 18.6682 7.48889 19.0067 7.48889 19.4238C7.48889 19.8409 7.80747 20.1793 8.2 20.1793C8.59254 20.1793 8.91111 19.8409 8.91111 19.4238C8.91111 19.0067 8.59254 18.6682 8.2 18.6682ZM11.7556 21.6905C11.363 21.6905 11.0444 22.0289 11.0444 22.446C11.0444 22.8631 11.363 23.2016 11.7556 23.2016C12.1481 23.2016 12.4667 22.8631 12.4667 22.446C12.4667 22.0289 12.1481 21.6905 11.7556 21.6905ZM15.3111 21.6905C14.9186 21.6905 14.6 22.0289 14.6 22.446C14.6 22.8631 14.9186 23.2016 15.3111 23.2016C15.7036 23.2016 16.0222 22.8631 16.0222 22.446C16.0222 22.0289 15.7036 21.6905 15.3111 21.6905ZM8.2 21.6905C7.80747 21.6905 7.48889 22.0289 7.48889 22.446C7.48889 22.8631 7.80747 23.2016 8.2 23.2016C8.59254 23.2016 8.91111 22.8631 8.91111 22.446C8.91111 22.0289 8.59254 21.6905 8.2 21.6905Z" fill="#0396BE"/>
<path d="M15.3111 9.60156C14.9186 9.60156 14.6 9.94005 14.6 10.3571C14.6 10.7742 14.9186 11.1127 15.3111 11.1127C15.7036 11.1127 16.0222 10.7742 16.0222 10.3571C16.0222 9.94005 15.7036 9.60156 15.3111 9.60156ZM11.7555 9.60156C11.363 9.60156 11.0444 9.94005 11.0444 10.3571C11.0444 10.7742 11.363 11.1127 11.7555 11.1127C12.1481 11.1127 12.4667 10.7742 12.4667 10.3571C12.4667 9.94005 12.1481 9.60156 11.7555 9.60156ZM15.3111 12.6238C14.9186 12.6238 14.6 12.9623 14.6 13.3793C14.6 13.7964 14.9186 14.1349 15.3111 14.1349C15.7036 14.1349 16.0222 13.7964 16.0222 13.3793C16.0222 12.9623 15.7036 12.6238 15.3111 12.6238ZM11.7555 12.6238C11.363 12.6238 11.0444 12.9623 11.0444 13.3793C11.0444 13.7964 11.363 14.1349 11.7555 14.1349C12.1481 14.1349 12.4667 13.7964 12.4667 13.3793C12.4667 12.9623 12.1481 12.6238 11.7555 12.6238ZM15.3111 15.646C14.9186 15.646 14.6 15.9845 14.6 16.4016C14.6 16.8186 14.9186 17.1571 15.3111 17.1571C15.7036 17.1571 16.0222 16.8186 16.0222 16.4016C16.0222 15.9845 15.7036 15.646 15.3111 15.646ZM11.7555 15.646C11.363 15.646 11.0444 15.9845 11.0444 16.4016C11.0444 16.8186 11.363 17.1571 11.7555 17.1571C12.1481 17.1571 12.4667 16.8186 12.4667 16.4016C12.4667 15.9845 12.1481 15.646 11.7555 15.646ZM15.3111 18.6682C14.9186 18.6682 14.6 19.0067 14.6 19.4238C14.6 19.8409 14.9186 20.1793 15.3111 20.1793C15.7036 20.1793 16.0222 19.8409 16.0222 19.4238C16.0222 19.0067 15.7036 18.6682 15.3111 18.6682ZM11.7555 18.6682C11.363 18.6682 11.0444 19.0067 11.0444 19.4238C11.0444 19.8409 11.363 20.1793 11.7555 20.1793C12.1481 20.1793 12.4667 19.8409 12.4667 19.4238C12.4667 19.0067 12.1481 18.6682 11.7555 18.6682ZM15.3111 21.6905C14.9186 21.6905 14.6 22.0289 14.6 22.446C14.6 22.8631 14.9186 23.2016 15.3111 23.2016C15.7036 23.2016 16.0222 22.8631 16.0222 22.446C16.0222 22.0289 15.7036 21.6905 15.3111 21.6905ZM11.7555 21.6905C11.363 21.6905 11.0444 22.0289 11.0444 22.446C11.0444 22.8631 11.363 23.2016 11.7555 23.2016C12.1481 23.2016 12.4667 22.8631 12.4667 22.446C12.4667 22.0289 12.1481 21.6905 11.7555 21.6905Z" fill="#0396BE"/>
</svg>
