<svg width="10" height="10" viewBox="0 0 10 10" fill="none" xmlns="http://www.w3.org/2000/svg">
<path d="M4.53125 1.10202C3.77994 1.19944 3.06734 1.53483 2.47375 2.0704L2.9875 2.65858C3.0703 2.76019 3.11538 2.89458 3.11323 3.03344C3.11109 3.1723 3.0619 3.30479 2.97601 3.40299C2.89013 3.5012 2.77426 3.55745 2.65283 3.5599C2.53139 3.56235 2.41386 3.51081 2.325 3.41613L1.80875 2.82653C1.36999 3.45583 1.08451 4.20658 0.98125 5.0027H2.03125C2.15557 5.0027 2.2748 5.05917 2.36271 5.15969C2.45061 5.26021 2.5 5.39655 2.5 5.5387C2.5 5.68086 2.45061 5.81719 2.36271 5.91771C2.2748 6.01823 2.15557 6.07471 2.03125 6.07471H0.953125C1.05043 7.22168 1.50887 8.28916 2.24313 9.07847C2.33168 9.17628 2.38303 9.31001 2.38607 9.45076C2.38911 9.5915 2.3436 9.72797 2.25938 9.83066C2.17515 9.93336 2.05897 9.99403 1.93594 9.99958C1.81291 10.0051 1.69291 9.95511 1.60188 9.86032C0.639375 8.82905 0 7.30823 0 5.67663C0 2.5378 2.24187 0 5 0C7.75813 0 10 2.53708 10 5.67663C9.99877 6.45997 9.85817 7.23483 9.58676 7.95407C9.31535 8.6733 8.9188 9.32187 8.42125 9.86032C8.33021 9.95511 8.21021 10.0051 8.08718 9.99958C7.96415 9.99403 7.84797 9.93336 7.76375 9.83066C7.67952 9.72797 7.63401 9.5915 7.63705 9.45076C7.64009 9.31001 7.69144 9.17628 7.78 9.07847C8.50915 8.28784 8.96001 7.21937 9.0475 6.07471H7.96875C7.84443 6.07471 7.7252 6.01823 7.63729 5.91771C7.54939 5.81719 7.5 5.68086 7.5 5.5387C7.5 5.39655 7.54939 5.26021 7.63729 5.15969C7.7252 5.05917 7.84443 5.0027 7.96875 5.0027H9.01875C8.75375 2.95445 7.29813 1.34001 5.46875 1.10202V1.96535C5.46875 2.1075 5.41936 2.24384 5.33146 2.34436C5.24355 2.44488 5.12432 2.50135 5 2.50135C4.87568 2.50135 4.75645 2.44488 4.66854 2.34436C4.58064 2.24384 4.53125 2.1075 4.53125 1.96535V1.10202ZM7.15563 2.72075C7.21242 2.66917 7.28314 2.64179 7.35565 2.6433C7.42817 2.6448 7.49797 2.6751 7.55309 2.72901C7.60821 2.78291 7.64521 2.85706 7.65776 2.93874C7.67031 3.02042 7.65763 3.10456 7.62187 3.17671L7.55312 3.31679C7.30179 3.82428 7.04887 4.33075 6.79438 4.83618C6.59092 5.24064 6.38466 5.64325 6.17562 6.04398C6.09729 6.19474 6.01728 6.34435 5.93563 6.49279C5.87312 6.60499 5.81188 6.71148 5.76688 6.77151C5.60542 6.98778 5.37545 7.12185 5.12755 7.14423C4.87965 7.16662 4.63413 7.07548 4.445 6.89086C4.25587 6.70625 4.13862 6.44328 4.11904 6.15981C4.09947 5.87635 4.17917 5.5956 4.34062 5.37933C4.38562 5.3193 4.4675 5.23282 4.555 5.14492C4.64875 5.04987 4.76937 4.93338 4.905 4.80259C5.1775 4.54245 5.51875 4.22371 5.85125 3.9164C6.24784 3.54955 6.64576 3.18459 7.045 2.82152L7.15563 2.72147V2.72075Z" fill="#003C4D"/>
</svg>
