<svg width="19" height="24" viewBox="0 0 19 24" fill="none" xmlns="http://www.w3.org/2000/svg">
<path d="M9.29651 9.29963H15.0444M9.35553 1.04443V3.16074V15.3441M9.35553 1.74408C12.4972 1.74408 15.0444 4.45048 15.0444 7.78852V15.3441H9.35553C9.35553 15.3441 9.35553 4.10519 9.35553 1.74408Z" stroke="#0396BE" stroke-width="2"/>
<path d="M9.41455 9.29963H3.66664M9.35553 1.04443V3.16074V15.3441M9.35553 1.74408C6.21384 1.74408 3.66664 4.45048 3.66664 7.78852V15.3441H9.35553C9.35553 15.3441 9.35553 4.10519 9.35553 1.74408Z" stroke="#0396BE" stroke-width="2"/>
<path d="M16.4667 15.3442V22.8998" stroke="#0396BE" stroke-width="2"/>
<path d="M13.6222 15.3442V22.8998" stroke="#0396BE" stroke-width="2"/>
<path d="M10.7777 15.3442V22.8998" stroke="#0396BE" stroke-width="2"/>
<path d="M7.93335 15.3442V22.8998" stroke="#0396BE" stroke-width="2"/>
<path d="M5.08887 15.3442V22.8998" stroke="#0396BE" stroke-width="2"/>
<path d="M2.24438 15.3442V22.8998" stroke="#0396BE" stroke-width="2"/>
<path d="M0.111084 22.8999H18.6" stroke="#0396BE" stroke-width="2"/>
<path d="M0.111084 15.3442H18.6" stroke="#0396BE" stroke-width="2"/>
</svg>
