<svg xmlns="http://www.w3.org/2000/svg" width="17.447" height="19.219" viewBox="0 0 17.447 19.219">
  <g id="Icon" transform="translate(-1.412 -0.819)">
    <g id="Vector" transform="translate(1.912 12.544)">
      <path id="Vector-border" d="M15.057,6.3h1.39a.7.7,0,0,1-1.39,0ZM0,6.3H1.39A.7.7,0,0,1,0,6.3Zm15.057,0V4.433h1.39V6.3ZM0,6.3V4.433A4.417,4.417,0,0,1,1.306,1.3,4.47,4.47,0,0,1,4.459,0V1.382a3.079,3.079,0,0,0-2.17.894,3.042,3.042,0,0,0-.9,2.157V6.3Zm15.057-1.87a3.039,3.039,0,0,0-.9-2.157l.983-.977a4.419,4.419,0,0,1,1.306,3.134ZM11.987,1.382V0a4.474,4.474,0,0,1,3.154,1.3l-.983.977A3.078,3.078,0,0,0,11.987,1.382Zm-7.528,0V0h7.528V1.382Z" transform="translate(0)" fill="#022332" stroke="#022332" stroke-width="1"/>
    </g>
    <g id="Vector-2" data-name="Vector" transform="translate(5.682 1.319)">
      <path id="Vector-border-2" data-name="Vector-border" d="M4.459,7.483A3.06,3.06,0,0,0,7.529,4.433h1.39A4.446,4.446,0,0,1,4.459,8.865ZM0,4.433H1.39A3.06,3.06,0,0,0,4.459,7.483V8.865A4.446,4.446,0,0,1,0,4.433Zm7.529,0a3.069,3.069,0,0,0-6.139,0H0a4.459,4.459,0,0,1,8.919,0Z" transform="translate(0)" fill="#022332" stroke="#022332" stroke-width="1"/>
    </g>
  </g>
</svg>
