<svg width="18" height="18" viewBox="0 0 18 18" fill="none" xmlns="http://www.w3.org/2000/svg">
<g clip-path="url(#clip0_359_514)">
<path d="M0.418158 18C0.317084 18 0.218756 17.96 0.145834 17.8863C0.0497041 17.7891 0.0126253 17.6479 0.0487428 17.5159L1.21892 13.2428C0.490393 11.9254 0.106284 10.4351 0.106833 8.92227C0.108893 4.00246 4.11258 0 9.03198 0C11.4181 0.000961305 13.6601 0.930405 15.3453 2.61681C17.0301 4.30334 17.9577 6.54524 17.957 8.92941C17.9548 13.8494 13.9511 17.8521 9.03198 17.8521C9.03198 17.8521 9.02827 17.8521 9.02813 17.8521C7.59126 17.8515 6.16675 17.5014 4.89838 16.8381L0.515249 17.9875C0.483114 17.9959 0.45043 18 0.418158 18Z" fill="white"/>
<path d="M0.417969 17.617L1.62976 13.1918C0.882279 11.8967 0.489105 10.4275 0.489655 8.92239C0.491577 4.2138 4.32334 0.383011 9.03182 0.383011C11.3167 0.383972 13.4614 1.27331 15.0742 2.88748C16.6868 4.50164 17.5747 6.64727 17.5738 8.92926C17.5718 13.6377 13.7395 17.4691 9.03182 17.4691C9.03154 17.4691 9.03195 17.4691 9.03182 17.4691H9.02811C7.59851 17.4685 6.1939 17.1099 4.94627 16.4295L0.417969 17.617ZM5.15597 14.8836L5.41538 15.0372C6.50523 15.6841 7.75479 16.0261 9.02907 16.0268H9.03182C12.9449 16.0268 16.1298 12.8424 16.1315 8.92871C16.1322 7.03206 15.3944 5.24857 14.054 3.90701C12.7133 2.56544 10.9309 1.8262 9.03442 1.82538C5.1182 1.82538 1.9334 5.00934 1.93189 8.92294C1.93134 10.2641 2.30652 11.5701 3.01734 12.7003L3.18625 12.9689L2.46885 15.5881L5.15597 14.8836Z" fill="white"/>
<path d="M0.715332 17.3188L1.88524 13.0467C1.16344 11.7964 0.783997 10.378 0.784408 8.92516C0.786194 4.37956 4.48542 0.681427 9.0306 0.681427C11.2367 0.682388 13.3072 1.54097 14.8638 3.09924C16.4208 4.65752 17.2778 6.72885 17.2769 8.93161C17.275 13.4773 13.5756 17.1759 9.03101 17.1759C9.0306 17.1759 9.03115 17.1759 9.03101 17.1759H9.0273C7.64729 17.1753 6.29116 16.829 5.08679 16.1726L0.715332 17.3188Z" fill="#033B49"/>
<path d="M0.417969 17.617L1.62976 13.1918C0.882279 11.8967 0.489105 10.4275 0.489655 8.92239C0.491577 4.2138 4.32334 0.383011 9.03182 0.383011C11.3167 0.383972 13.4614 1.27331 15.0742 2.88748C16.6868 4.50164 17.5747 6.64727 17.5738 8.92926C17.5718 13.6377 13.7395 17.4691 9.03182 17.4691H9.02811C7.59851 17.4685 6.1939 17.1099 4.94627 16.4295L0.417969 17.617ZM5.15597 14.8836L5.41538 15.0372C6.50523 15.6841 7.75479 16.0261 9.02907 16.0268H9.03182C12.9449 16.0268 16.1298 12.8424 16.1315 8.92871C16.1322 7.03206 15.3944 5.24857 14.054 3.90701C12.7133 2.56544 10.9309 1.8262 9.03443 1.82538C5.1182 1.82538 1.9334 5.00934 1.93189 8.92294C1.93134 10.2641 2.30652 11.5701 3.01734 12.7003L3.18625 12.9689L2.46885 15.5881L5.15597 14.8836Z" fill="white"/>
<path fill-rule="evenodd" clip-rule="evenodd" d="M6.89704 5.35241C6.73719 4.997 6.56883 4.98986 6.41667 4.98368C6.29225 4.97832 6.14984 4.97859 6.0077 4.97859C5.86543 4.97859 5.63417 5.03215 5.43861 5.2457C5.24292 5.45925 4.69141 5.97561 4.69141 7.02577C4.69141 8.07607 5.45633 9.0908 5.56303 9.23335C5.66974 9.37576 7.03959 11.5997 9.20897 12.4552C11.012 13.1663 11.3788 13.0249 11.7702 12.9893C12.1615 12.9537 13.0329 12.473 13.2107 11.9746C13.3887 11.4762 13.3887 11.0491 13.3353 10.9597C13.2819 10.8709 13.1396 10.8174 12.9262 10.7107C12.7128 10.604 11.6634 10.0875 11.4678 10.0164C11.2721 9.94513 11.1298 9.9097 10.9875 10.1234C10.8451 10.3368 10.4364 10.8174 10.3119 10.9597C10.1873 11.1024 10.0627 11.1203 9.84934 11.0134C9.63593 10.9064 8.94846 10.6812 8.133 9.95405C7.49854 9.38839 7.07008 8.68966 6.94552 8.47597C6.8211 8.26256 6.94346 8.15709 7.03932 8.0405C7.21194 7.83052 7.50156 7.453 7.5727 7.31073C7.64384 7.16818 7.60827 7.04362 7.55499 6.93678C7.50156 6.83008 7.08669 5.77456 6.89704 5.35241Z" fill="white"/>
</g>
<defs>
<clipPath id="clip0_359_514">
<rect width="18" height="18" fill="white"/>
</clipPath>
</defs>
</svg>
