<svg xmlns="http://www.w3.org/2000/svg" width="16.995" height="16.995" viewBox="0 0 16.995 16.995">
  <path id="whatsapp" d="M14.449,34.47A8.424,8.424,0,0,0,1.195,44.632L0,48.995l4.465-1.172A8.4,8.4,0,0,0,8.49,48.847h0A8.368,8.368,0,0,0,14.449,34.47ZM8.494,47.428a6.987,6.987,0,0,1-3.566-.975L4.674,46.3,2.026,47l.706-2.583-.167-.266a7.013,7.013,0,1,1,13.008-3.721A7.078,7.078,0,0,1,8.494,47.428Zm3.839-5.243c-.209-.106-1.244-.615-1.438-.683s-.334-.106-.474.106-.542.683-.668.827-.247.159-.455.053a5.728,5.728,0,0,1-2.864-2.5c-.216-.372.216-.345.618-1.149a.39.39,0,0,0-.019-.368c-.053-.106-.474-1.142-.649-1.563s-.345-.353-.474-.36-.262-.008-.4-.008a.78.78,0,0,0-.561.262,2.365,2.365,0,0,0-.736,1.756,4.122,4.122,0,0,0,.857,2.177,9.4,9.4,0,0,0,3.6,3.179,4.118,4.118,0,0,0,2.526.527,2.155,2.155,0,0,0,1.419-1,1.76,1.76,0,0,0,.121-1C12.682,42.341,12.541,42.288,12.333,42.186Z" transform="translate(0 -32)" fill="#fff"/>
</svg>
